<?xml version="1.0" encoding="UTF-8"?>
<svg width="102px" height="152px" viewBox="0 0 102 152" version="1.1" xmlns="http://www.w3.org/2000/svg" xmlns:xlink="http://www.w3.org/1999/xlink">
    <!-- Generator: Sketch 55.2 (78181) - https://sketchapp.com -->
    <title>Group 4</title>
    <desc>Created with Sketch.</desc>
    <defs>
        <linearGradient x1="50%" y1="0%" x2="50%" y2="100%" id="linearGradient-1">
            <stop stop-color="#EF2A92" offset="0%"></stop>
            <stop stop-color="#840D96" offset="100%"></stop>
        </linearGradient>
    </defs>
    <g id="Page-1" stroke="none" stroke-width="1" fill="none" fill-rule="evenodd">
        <g id="Group-4" transform="translate(0.000000, 0.000000)" fill-rule="nonzero">
            <path d="M78.6017191,45.5115817 C85.0215089,38.9539421 83.413584,29.2472878 72.7850609,15.5726997 L77.5223942,11.890625 C84.7390611,21.1755415 88.4400776,29.4603889 88.4223469,36.5776552 L91.5470845,33.7350491 C98.0980927,27.1760849 96.5335828,17.4361901 85.8432475,3.6820747 L90.5805807,0 C102.927846,15.8859109 104.983724,28.8443127 95.7310168,38.0362319 L95.6354701,38.1270678 L82.7578369,49.8419836 C82.7296082,49.8703103 82.7012727,49.8986014 82.6728303,49.9268569 L82.5796743,50.0155156 L68.5211616,62.8324101 L68.5016379,62.810995 L60.0187709,70.5279467 L55.9812291,66.0896749 L78.6017191,45.5115817 L78.6017191,45.5115817 Z M32.9458452,62.7808711 L32.898858,62.8324101 L18.8403453,50.0155156 L18.7471893,49.9268569 C18.5637058,49.7445789 18.3846693,49.5608197 18.2100718,49.3755859 L5.84512678,38.1270678 L5.74958002,38.0362319 C-3.50312724,28.8443127 -1.44724928,15.8859109 10.9000162,0 L15.6373494,3.6820747 C4.94701408,17.4361901 3.38250415,27.1760849 9.93351233,33.7350491 L12.9976097,36.5224901 C12.9990814,29.4175905 16.6995957,21.1515629 23.8976255,11.890625 L28.6349587,15.5726997 C18.217452,28.9757956 16.4659132,38.5669505 22.4454299,45.1172697 L45.4993677,66.0896749 L41.461826,70.5279467 L32.9458452,62.7808711 L32.9458452,62.7808711 Z M50.6460792,102.695424 L59.868805,95.3188847 C62.3983497,71.5028889 73.0676911,57.0930956 91.7441023,52.8076507 L93.0859758,58.655674 C76.8516157,62.3807716 67.7749882,74.9598364 65.7161743,97.1499276 L65.5983999,98.4193105 L50.6683739,110.360674 L35.5359825,98.4011255 L35.4471225,97.0730552 C33.9781844,75.1188277 24.9987077,62.5705846 8.31411037,58.6522026 L9.68588963,52.8111221 C28.7952045,57.2989496 39.4061082,71.7187014 41.3345511,95.3362651 L50.6460792,102.695424 Z" id="Shape" fill="url(#linearGradient-1)"></path>
            <path d="M17.624,126.836 L23.24,126.836 L23.24,152 L17.624,152 L17.624,142.1 L7.616,142.1 L7.616,152 L2,152 L2,126.836 L7.616,126.836 L7.616,137.348 L17.624,137.348 L17.624,126.836 Z M47.36,152 L45.02,146.564 L34.472,146.564 L32.132,152 L26.156,152 L37.028,126.836 L42.464,126.836 L53.336,152 L47.36,152 Z M39.764,134.324 L36.596,141.632 L42.896,141.632 L39.764,134.324 Z M76.664,135.188 C76.664,139.22002 75.068016,141.823994 71.876,143 L78.248,152 L71.336,152 L65.756,143.972 L61.868,143.972 L61.868,152 L56.252,152 L56.252,126.836 L65.792,126.836 C69.7040196,126.836 72.4939917,127.495993 74.162,128.816 C75.8300083,130.136007 76.664,132.259985 76.664,135.188 Z M65.972,139.112 C67.8920096,139.112 69.1999965,138.800003 69.896,138.176 C70.5920035,137.551997 70.94,136.562007 70.94,135.206 C70.94,133.849993 70.5800036,132.920003 69.86,132.416 C69.1399964,131.911997 67.880009,131.66 66.08,131.66 L61.868,131.66 L61.868,139.112 L65.972,139.112 Z M93.08,131.696 L93.08,152 L87.464,152 L87.464,131.696 L80.336,131.696 L80.336,126.836 L100.208,126.836 L100.208,131.696 L93.08,131.696 Z" id="HART" fill="#6A0E96"></path>
        </g>
    </g>
</svg>